<?xml version="1.0" standalone="no"?>
<!DOCTYPE svg PUBLIC "-//W3C//DTD SVG 20010904//EN"
 "http://www.w3.org/TR/2001/REC-SVG-20010904/DTD/svg10.dtd">
<svg version="1.0" xmlns="http://www.w3.org/2000/svg"
 width="500.000000pt" height="500.000000pt" viewBox="0 0 500.000000 500.000000"
 preserveAspectRatio="xMidYMid meet">
<metadata>
Created by potrace 1.14, written by Peter Selinger 2001-2017
</metadata>
<g transform="translate(0.000000,500.000000) scale(0.100000,-0.100000)"
fill="#000000" stroke="none">
<path d="M3390 4658 c-49 -25 -114 -47 -185 -63 -201 -44 -352 -56 -810 -65
-330 -6 -442 -11 -480 -22 -51 -15 -128 -51 -155 -72 -8 -7 -42 -20 -75 -30
-116 -35 -205 -95 -251 -168 l-25 -40 -82 7 c-99 7 -215 -6 -262 -32 -18 -10
-49 -40 -67 -68 -46 -69 -133 -113 -249 -127 -113 -13 -211 -35 -228 -52 -12
-12 -7 -35 33 -156 25 -78 58 -169 72 -202 22 -53 24 -62 11 -70 -86 -47 -195
-171 -227 -256 -26 -68 -27 -251 -3 -442 26 -202 26 -199 -44 -341 -73 -148
-162 -273 -237 -331 -30 -23 -53 -44 -51 -46 5 -5 145 67 205 107 30 20 83 62
117 95 35 32 63 52 63 45 0 -8 5 -79 10 -159 32 -460 143 -903 306 -1221 46
-89 83 -144 69 -104 -36 108 -82 373 -61 354 3 -3 27 -48 52 -99 73 -152 141
-247 238 -335 63 -57 108 -109 157 -184 38 -57 69 -101 69 -98 0 3 -13 47 -29
97 -47 144 -121 507 -101 495 8 -5 231 -276 395 -480 48 -60 112 -146 141
-191 57 -88 84 -107 154 -106 53 1 96 15 195 65 169 84 618 334 743 413 29 19
54 34 57 34 2 0 12 -36 22 -80 10 -44 21 -80 25 -80 5 0 8 26 8 59 0 123 7
143 61 179 27 17 53 32 57 32 11 0 102 -193 133 -282 13 -38 27 -68 30 -68 13
0 66 343 90 579 12 119 14 125 53 179 38 53 40 54 48 31 16 -42 87 -338 94
-390 4 -27 10 -49 14 -49 7 0 32 165 50 340 5 52 10 150 10 217 0 67 3 124 8
126 4 2 30 1 57 -2 l50 -6 -4 -50 -3 -50 27 25 c41 38 46 17 43 -168 -3 -141
-1 -162 12 -157 26 10 120 69 152 96 l31 25 74 -50 c40 -27 75 -47 78 -44 3 3
-8 33 -24 67 l-29 63 92 91 c122 120 145 167 157 314 10 131 56 275 93 289 13
5 103 -43 181 -96 74 -51 171 -147 215 -212 48 -72 50 -57 10 65 -59 175 -147
334 -261 472 l-57 70 6 120 7 120 110 16 c122 18 209 46 268 85 41 27 45 45 5
22 -32 -18 -351 -19 -369 -1 -8 8 -16 62 -20 137 -7 106 -31 256 -55 345 l-7
23 39 -25 c76 -50 158 -70 289 -71 130 -1 262 11 249 23 -5 4 -33 13 -63 20
-77 16 -229 93 -324 164 -102 75 -269 236 -290 279 -32 67 -87 190 -87 197 0
3 30 12 68 19 94 18 235 89 300 152 58 56 62 71 12 45 -100 -52 -308 -70 -440
-40 -62 15 -203 65 -198 71 2 1 41 16 87 33 89 33 162 75 201 116 29 30 26 31
-35 4 -50 -22 -205 -39 -204 -23 0 5 27 22 60 37 33 16 84 52 113 80 50 50
122 145 114 152 -2 2 -30 -9 -63 -25 -188 -90 -649 -91 -1045 -4 -63 15 -122
28 -130 31 -8 2 26 18 75 34 126 42 220 95 290 161 33 32 58 57 55 56 -3 -1
-39 -18 -80 -40z"/>
</g>
</svg>
